<svg width="280" height="139" viewBox="0 0 280 139" fill="none" xmlns="http://www.w3.org/2000/svg">
<g clip-path="url(#clip0_2429_9280)" filter="url(#filter0_d_2429_9280)">
<path d="M74.1256 37.3172C74.3956 37.1245 74.6915 36.9703 75.0046 36.8593H75.2139H75.3813C75.729 36.757 76.0988 36.7556 76.4473 36.8551C76.7958 36.9546 77.1085 37.151 77.3486 37.4212C77.7139 37.8896 77.9775 38.4282 78.1229 39.003C78.4982 40.9743 78.7221 42.9711 78.7926 44.9762C78.891 46.1574 79.0588 47.3318 79.2949 48.4936V48.4936C79.7961 51.5278 81.2633 54.3219 83.4807 56.4648V56.3191C83.3551 55.8196 83.104 54.3835 83.983 53.6759C84.1679 53.5245 84.3813 53.4112 84.6108 53.3429V53.3429C84.9434 53.2878 85.2828 53.2878 85.6154 53.3429C87.7083 53.4678 88.943 56.7354 91.4754 59.4827C93.0197 61.2559 95.096 62.4889 97.3982 63V63H97.5238C97.406 62.5355 97.406 62.0492 97.5238 61.5847C97.572 61.3843 97.6701 61.1993 97.8091 61.0465C97.948 60.8938 98.1234 60.7783 98.3191 60.7106V60.7106C99.0218 60.5673 99.7517 60.6399 100.412 60.9187C102.014 61.4792 103.669 61.8766 105.351 62.105V62.105C106.051 62.1038 106.751 62.1525 107.444 62.2507C108.248 62.2506 109.051 62.209 109.851 62.1258C111.762 61.8714 113.619 61.3163 115.355 60.4816V60.4816C115.057 60.1812 114.885 59.7795 114.874 59.3578C114.162 59.7324 113.43 60.0654 112.676 60.3776C113.43 60.0654 114.162 59.7324 114.874 59.3578C114.877 59.106 114.934 58.8577 115.041 58.6293C115.286 58.2721 115.608 57.9735 115.983 57.7552C116.57 57.3504 117.211 57.0282 117.887 56.7978C118.494 56.5689 119.038 56.4024 119.75 56.0693L120.085 55.882C121.316 55.1732 122.437 54.2898 123.413 53.2596V53.2596L123.58 53.0932L123.35 53.3013C125.745 50.7011 127.431 47.5341 128.247 44.1021C128.591 43.0071 128.802 41.8752 128.875 40.7304C128.875 40.4182 128.875 40.106 128.875 39.7938C129.086 37.2489 129.03 34.689 128.708 32.1556V32.1556C128.718 29.5908 128.1 27.0621 126.908 24.7879C126.908 25.7037 126.698 26.6819 126.573 27.6601C126.322 29.5956 126.029 31.6145 125.568 33.779C124.982 36.443 124.312 38.8781 123.601 41.0634L124.312 40.7513L125.757 40.1061C125.757 40.5015 125.589 41.0634 125.422 41.7086C125.29 42.0917 125.136 42.4669 124.961 42.8325C124.794 43.2071 124.605 43.6026 124.417 43.9772C124.229 44.3518 124.061 44.6432 123.873 44.9762C122.468 47.3727 120.537 49.422 118.222 50.9703C116.021 52.4387 113.532 53.4248 110.918 53.8632H110.416C110.039 53.8632 109.641 53.8632 109.244 53.9881H108.762C105.674 53.9997 102.627 53.2867 99.8678 51.9068C97.29 50.6309 95.064 48.749 93.3828 46.4243C91.7015 44.0996 90.6158 41.4022 90.2197 38.5659C90.2197 38.0039 90.1151 37.442 90.0941 36.8593C90.0941 36.7552 90.0941 36.6303 90.0941 36.5054C90.098 34.3625 90.5246 32.2412 91.3498 30.2616C92.2628 27.8579 93.7987 25.737 95.8019 24.1141C97.805 22.4912 100.204 21.424 102.756 21.0208V21.0208C102.005 21.6589 101.305 22.3548 100.663 23.1021C100.42 23.3023 100.22 23.5503 100.077 23.8305V23.8305L108.867 22.8523H109.181C112.527 22.9807 115.778 23.9937 118.599 25.7869V25.7869L120.838 23.56L121.32 25.0585L121.55 25.7869C121.987 24.9253 122.364 24.0352 122.68 23.1229C122.827 22.7275 122.973 22.2904 123.099 21.8325C123.392 20.8529 123.602 19.8503 123.726 18.8355C123.726 18.2944 123.726 17.7533 123.726 17.2121C123.351 17.4923 122.925 17.6973 122.471 17.8156C122.192 17.8996 121.904 17.9485 121.613 17.9613C121.281 17.9772 120.95 17.9421 120.629 17.8573C119.757 17.5962 118.98 17.0903 118.39 16.4004C117.952 15.8988 117.567 15.355 117.239 14.777C116.569 12.6957 109.076 10.448 103.321 7.1388C101.694 6.25309 100.188 5.16172 98.8423 3.89196C97.7393 2.85423 97.0049 1.48847 96.7494 0V0C96.7542 0.0484476 96.7542 0.0972564 96.7494 0.145704C96.7494 0.145704 96.7494 0.145699 96.7494 0.270575C96.7345 0.353167 96.7345 0.437725 96.7494 0.520317C96.737 0.568096 96.737 0.618241 96.7494 0.666021L96.6448 0.978198C96.6448 0.978198 96.6448 1.12392 96.6448 1.20717C96.6448 1.29042 96.6448 1.43607 96.6448 1.56095C96.6448 1.68583 96.6448 1.72746 96.6448 1.83153V2.22697C96.656 2.32378 96.656 2.42158 96.6448 2.51838C96.6448 2.66407 96.6448 2.80976 96.6448 2.97626C96.6343 3.08701 96.6343 3.19845 96.6448 3.30921V3.76709C96.6345 3.89176 96.6345 4.0171 96.6448 4.14177C96.6448 4.28745 96.6448 4.45391 96.6448 4.62042C96.6448 4.78692 96.6448 4.87015 96.6448 4.99503C96.6767 5.16384 96.7187 5.33067 96.7704 5.49458L96.896 5.89002L97.0843 6.38951C97.1458 6.52548 97.2157 6.65755 97.2936 6.78495C97.2936 6.95145 97.4401 7.11793 97.5447 7.28444L97.8168 7.67988C97.9424 7.84638 98.047 8.01291 98.1726 8.1586C98.2872 8.3003 98.4132 8.43255 98.5493 8.55404C98.6777 8.71636 98.8176 8.86937 98.9679 9.01192L99.3655 9.3241L99.8887 9.74038L100.475 10.115L100.956 10.4272L101.27 10.5936L96.3518 8.3459L93.9031 7.222C94.1222 8.2107 94.4965 9.15891 95.0124 10.0317C95.2745 10.4637 95.561 10.8807 95.8704 11.2805V11.2805C95.8704 11.2805 85.4061 10.9475 79.6507 19.1477C79.9562 19.0975 80.2688 19.1085 80.5699 19.1802C80.8711 19.2519 81.1548 19.3827 81.4044 19.565C81.654 19.7473 81.8644 19.9773 82.0233 20.2416C82.1822 20.5059 82.2863 20.7992 82.3296 21.1041C82.3519 21.3186 82.3519 21.5348 82.3296 21.7493C82.35 21.9082 82.35 22.0691 82.3296 22.228C82.0157 22.7899 81.7227 23.3519 81.4297 23.9138C81.1367 24.4757 80.0693 25.6204 79.2112 26.6194C78.6461 27.2646 78.0811 27.9306 77.516 28.7007C75.6102 30.9419 74.3901 33.6793 74 36.5887V36.5887C74.029 36.8335 74.0709 37.0767 74.1256 37.3172V37.3172ZM107.214 61.5431C106.753 61.5431 106.293 61.7096 105.832 61.7512C106.335 61.7096 106.711 61.6263 107.214 61.5431V61.5431ZM97.5238 62.667C96.6647 62.1514 95.8647 61.5443 95.1379 60.8563C95.8647 61.5443 96.6647 62.1514 97.5238 62.667V62.667ZM91.2452 55.9861C91.6013 56.5977 91.9927 57.1884 92.4172 57.7552C91.9927 57.1884 91.6013 56.5977 91.2452 55.9861V55.9861ZM79.1484 26.8483C78.8136 27.1605 78.5206 27.4727 78.2485 27.7641C78.5415 27.556 78.8345 27.2438 79.1275 26.9316L79.1484 26.8483ZM78.1439 33.7998C78.2991 33.8725 78.4406 33.9711 78.5624 34.0912V34.0912C78.4406 33.9711 78.2991 33.8725 78.1439 33.7998C78.0051 33.7796 77.8641 33.7796 77.7253 33.7998C77.8753 33.8047 78.0235 33.8327 78.1648 33.883L78.1439 33.7998ZM77.516 33.6957C76.9756 33.7372 76.4625 33.9486 76.051 34.2993C76.4788 33.9745 76.9989 33.7923 77.5369 33.779L77.516 33.6957Z" fill="white"/>
<path d="M272.991 102.903C271.041 100.604 268.601 98.7684 265.848 97.5303C262.346 96.0533 258.759 94.7854 255.106 93.7334C251.759 92.8458 248.506 91.6379 245.393 90.1264C244.478 89.7302 243.698 89.0783 243.147 88.2495C242.596 87.4206 242.297 86.4505 242.288 85.4562C242.246 84.6588 242.397 83.8629 242.728 83.136C243.06 82.409 243.562 81.7723 244.193 81.2796C245.596 80.2536 247.311 79.7377 249.049 79.8179C251.095 79.7356 253.108 80.3444 254.763 81.5454C255.491 82.1024 256.086 82.8137 256.505 83.628C256.923 84.4423 257.154 85.3391 257.182 86.2536H275.162C275.092 83.5651 274.386 80.9311 273.102 78.5658C271.818 76.2005 269.992 74.1708 267.772 72.6417C263.175 69.3764 257.119 67.75 249.602 67.7627C243.249 67.4678 236.965 69.1749 231.641 72.6417C229.438 74.1286 227.649 76.1488 226.443 78.5131C225.237 80.8773 224.653 83.508 224.746 86.1587C224.562 89.5817 225.632 92.9549 227.756 95.6509C229.688 98.0075 232.147 99.8801 234.936 101.118C238.438 102.602 242.041 103.839 245.716 104.82C248.102 105.432 250.455 106.167 252.763 107.023C254.292 107.588 255.705 108.424 256.935 109.491C257.488 109.955 257.929 110.537 258.226 111.194C258.523 111.852 258.667 112.567 258.649 113.288C258.677 114.12 258.497 114.947 258.125 115.692C257.752 116.438 257.199 117.08 256.516 117.559C254.777 118.671 252.731 119.209 250.668 119.097C248.563 119.158 246.503 118.487 244.84 117.198C244.072 116.547 243.444 115.746 242.996 114.845C242.547 113.945 242.287 112.963 242.231 111.959H224.518C224.574 115.75 225.917 119.41 228.327 122.343C230.855 125.333 234.145 127.589 237.85 128.874C242.128 130.39 246.643 131.136 251.183 131.076C255.76 131.188 260.308 130.314 264.515 128.513C267.96 127.057 270.933 124.678 273.105 121.641C275.067 118.828 276.105 115.479 276.076 112.054C276.209 108.729 275.111 105.472 272.991 102.903V102.903Z" fill="white"/>
<path d="M14.9707 45.7217H27.1032V38.033H14.9707V29.471H31.1791V21.5355H5.27612V62.1623H14.9707V45.7217Z" fill="white"/>
<path d="M46.2065 54.9861H61.0626L63.4434 62.1433H73.6903L59.2913 21.5355H48.0731L33.6741 62.1433H43.8257L46.2065 54.9861ZM53.6346 32.4705L58.5676 47.3354H48.7587L53.6346 32.4705Z" fill="white"/>
<path d="M146.542 62.1623H156.237V29.471H166.789V21.5355H135.991V29.471H146.542V62.1623Z" fill="white"/>
<path d="M181.359 21.5545H171.665V62.1623H181.359V21.5545Z" fill="white"/>
<path d="M227.565 41.735C227.617 37.9918 226.684 34.3004 224.861 31.0277C223.14 27.9264 220.588 25.363 217.49 23.6238C214.344 21.88 210.804 20.9648 207.205 20.9648C203.605 20.9648 200.066 21.88 196.92 23.6238C193.814 25.372 191.246 27.932 189.492 31.0277C187.68 34.3108 186.729 37.9973 186.729 41.7445C186.729 45.4917 187.68 49.1781 189.492 52.4612C191.244 55.568 193.812 58.1407 196.92 59.9031C200.063 61.6453 203.599 62.5596 207.195 62.5596C210.791 62.5596 214.328 61.6453 217.471 59.9031C220.554 58.1272 223.1 55.5565 224.842 52.4612C226.677 49.1857 227.617 45.4866 227.565 41.735V41.735ZM214.823 50.297C213.83 51.3073 212.645 52.1099 211.337 52.6578C210.029 53.2057 208.624 53.4879 207.205 53.4879C205.786 53.4879 204.381 53.2057 203.073 52.6578C201.765 52.1099 200.579 51.3073 199.586 50.297C197.72 47.816 196.71 44.7983 196.71 41.697C196.71 38.5957 197.72 35.578 199.586 33.097C200.545 32.0429 201.724 31.2111 203.041 30.66C204.357 30.109 205.778 29.8522 207.205 29.9076C208.634 29.8466 210.059 30.1028 211.376 30.6577C212.694 31.2125 213.871 32.0522 214.823 33.116C216.672 35.5831 217.671 38.5798 217.671 41.659C217.671 44.7383 216.672 47.735 214.823 50.202V50.297Z" fill="white"/>
<path d="M242.631 37.1028L258.858 62.1623H268.553V21.5355H258.858V46.7089L242.631 21.5355H232.936V62.1623H242.631V37.1028Z" fill="white"/>
<path d="M83.5563 68.56L73.6523 113.553L61.9959 68.56H43.7306L31.5981 113.553L21.7702 68.56H4L21.294 130.374H41.4069L52.6633 89.7088L63.5577 130.374H83.6706L101.441 68.56H83.5563Z" fill="white"/>
<path d="M116.983 68.5601L92.3176 130.374H109.707L113.783 119.457H139.229L143.324 130.374H160.903L136.143 68.5601H116.983ZM118.163 107.839L126.506 85.1525L135 107.934L118.163 107.839Z" fill="white"/>
<path d="M215.547 99.0301C218.056 95.9092 219.402 92.0181 219.356 88.0192C219.399 84.5135 218.42 81.071 216.538 78.1093C214.474 74.9827 211.514 72.5481 208.043 71.1229C203.694 69.3047 199.006 68.4311 194.291 68.5601H166.446V130.374H183.054V107.042H187.035L201.224 130.374H219.966L204.234 105.903C208.651 104.892 212.621 102.48 215.547 99.0301V99.0301ZM200.196 94.36C198.237 95.8518 195.797 96.5747 193.339 96.3913H183.054V81.0708H193.339C195.795 80.8821 198.235 81.5981 200.196 83.0832C200.963 83.7865 201.565 84.6494 201.96 85.6107C202.355 86.572 202.533 87.6081 202.481 88.6456C202.544 89.7069 202.372 90.7688 201.977 91.7563C201.582 92.7438 200.974 93.6327 200.196 94.36V94.36Z" fill="white"/>
</g>
<defs>
<filter id="filter0_d_2429_9280" x="0" y="0" width="280" height="139" filterUnits="userSpaceOnUse" color-interpolation-filters="sRGB">
<feFlood flood-opacity="0" result="BackgroundImageFix"/>
<feColorMatrix in="SourceAlpha" type="matrix" values="0 0 0 0 0 0 0 0 0 0 0 0 0 0 0 0 0 0 127 0" result="hardAlpha"/>
<feOffset dy="4"/>
<feGaussianBlur stdDeviation="2"/>
<feComposite in2="hardAlpha" operator="out"/>
<feColorMatrix type="matrix" values="0 0 0 0 0 0 0 0 0 0 0 0 0 0 0 0 0 0 0.25 0"/>
<feBlend mode="normal" in2="BackgroundImageFix" result="effect1_dropShadow_2429_9280"/>
<feBlend mode="normal" in="SourceGraphic" in2="effect1_dropShadow_2429_9280" result="shape"/>
</filter>
<clipPath id="clip0_2429_9280">
<rect width="272" height="131" fill="white" transform="translate(4)"/>
</clipPath>
</defs>
</svg>
